HIERARCHY
ROOT hip
{
  OFFSET 0 0 0
  CHANNELS 6 Xposition Yposition Zposition Zrotation Yrotation Xrotation
  JOINT abdomen
  {
    OFFSET 0 20.6881 -0.73152
    CHANNELS 3 Zrotation Xrotation Yrotation
    JOINT chest
    {
      OFFSET 0 11.7043 -0.48768
      CHANNELS 3 Zrotation Xrotation Yrotation
      JOINT neck
      {
        OFFSET 0 22.1894 -2.19456
        CHANNELS 3 Zrotation Xrotation Yrotation
        JOINT head
        {
          OFFSET -0.24384 7.07133 1.2192
          CHANNELS 3 Zrotation Xrotation Yrotation
          JOINT leftEye
          {
            OFFSET 4.14528 8.04674 8.04672
            CHANNELS 3 Zrotation Xrotation Yrotation
            End Site
            {
              OFFSET 1 0 0
            }
          }
          JOINT rightEye
          {
            OFFSET -3.6576 8.04674 8.04672
            CHANNELS 3 Zrotation Xrotation Yrotation
            End Site
            {
              OFFSET 1 0 0
            }
          }
        }
      }
      JOINT rCollar
      {
        OFFSET -2.68224 19.2634 -4.8768
        CHANNELS 3 Zrotation Xrotation Yrotation
        JOINT rShldr
        {
          OFFSET -8.77824 -1.95073 1.46304
          CHANNELS 3 Zrotation Xrotation Yrotation
          JOINT rForeArm
          {
            OFFSET -28.1742 -1.7115 0.48768
            CHANNELS 3 Zrotation Xrotation Yrotation
            JOINT rHand
            {
              OFFSET -22.5879 0.773209 7.07136
              CHANNELS 3 Zrotation Xrotation Yrotation
              JOINT rThumb1
              {
                OFFSET -1.2192 -0.487915 3.41376
                CHANNELS 3 Zrotation Xrotation Yrotation
                JOINT rThumb2
                {
                  OFFSET -3.37035 -0.52449 3.41376
                  CHANNELS 3 Zrotation Xrotation Yrotation
                  End Site
                  {
                    OFFSET -1.78271 -1.18214 1.43049
                  }
                }
              }
              JOINT rIndex1
              {
                OFFSET -7.75947 0.938293 5.60832
                CHANNELS 3 Zrotation Xrotation Yrotation
                JOINT rIndex2
                {
                  OFFSET -2.54057 -0.884171 1.56538
                  CHANNELS 3 Zrotation Xrotation Yrotation
                  End Site
                  {
                    OFFSET -1.62519 -0.234802 1.16502
                  }
                }
              }
              JOINT rMid1
              {
                OFFSET -8.24714 1.18213 3.41376
                CHANNELS 3 Zrotation Xrotation Yrotation
                JOINT rMid2
                {
                  OFFSET -3.10165 -0.590103 1.0647
                  CHANNELS 3 Zrotation Xrotation Yrotation
                  End Site
                  {
                    OFFSET -2.48547 -0.328903 0.83742
                  }
                }
              }
              JOINT rRing1
              {
                OFFSET -8.82822 0.546677 1.51678
                CHANNELS 3 Zrotation Xrotation Yrotation
                JOINT rRing2
                {
                  OFFSET -2.60934 -0.819778 -0.0198488
                  CHANNELS 3 Zrotation Xrotation Yrotation
                  End Site
                  {
                    OFFSET -2.33842 -0.294052 0.168128
                  }
                }
              }
              JOINT rPinky1
              {
                OFFSET -8.27202 -0.0477905 -0.4584
                CHANNELS 3 Zrotation Xrotation Yrotation
                JOINT rPinky2
                {
                  OFFSET -1.82734 -0.647385 -0.700984
                  CHANNELS 3 Zrotation Xrotation Yrotation
                  End Site
                  {
                    OFFSET -1.69225 -0.51767 -0.607171
                  }
                }
              }
            }
          }
        }
      }
      JOINT lCollar
      {
        OFFSET 2.68224 19.2634 -4.8768
        CHANNELS 3 Zrotation Xrotation Yrotation
        JOINT lShldr
        {
          OFFSET 8.77824 -1.95073 1.46304
          CHANNELS 3 Zrotation Xrotation Yrotation
          JOINT lForeArm
          {
            OFFSET 28.1742 -1.7115 0.48768
            CHANNELS 3 Zrotation Xrotation Yrotation
            JOINT lHand
            {
              OFFSET 22.5879 0.773209 7.07136
              CHANNELS 3 Zrotation Xrotation Yrotation
              JOINT lThumb1
              {
                OFFSET 1.2192 -0.487915 3.41376
                CHANNELS 3 Zrotation Xrotation Yrotation
                JOINT lThumb2
                {
                  OFFSET 3.37035 -0.52449 3.41376
                  CHANNELS 3 Zrotation Xrotation Yrotation
                  End Site
                  {
                    OFFSET 1.78271 -1.18214 1.43049
                  }
                }
              }
              JOINT lIndex1
              {
                OFFSET 7.75947 0.938293 5.60832
                CHANNELS 3 Zrotation Xrotation Yrotation
                JOINT lIndex2
                {
                  OFFSET 2.54057 -0.884171 1.56538
                  CHANNELS 3 Zrotation Xrotation Yrotation
                  End Site
                  {
                    OFFSET 1.62519 -0.234802 1.16502
                  }
                }
              }
              JOINT lMid1
              {
                OFFSET 8.24714 1.18213 3.41376
                CHANNELS 3 Zrotation Xrotation Yrotation
                JOINT lMid2
                {
                  OFFSET 3.10165 -0.590103 1.0647
                  CHANNELS 3 Zrotation Xrotation Yrotation
                  End Site
                  {
                    OFFSET 2.48547 -0.328903 0.83742
                  }
                }
              }
              JOINT lRing1
              {
                OFFSET 8.82822 0.546677 1.51678
                CHANNELS 3 Zrotation Xrotation Yrotation
                JOINT lRing2
                {
                  OFFSET 2.60934 -0.819778 -0.0198488
                  CHANNELS 3 Zrotation Xrotation Yrotation
                  End Site
                  {
                    OFFSET 2.33842 -0.294052 0.168128
                  }
                }
              }
              JOINT lPinky1
              {
                OFFSET 8.27202 -0.0477905 -0.4584
                CHANNELS 3 Zrotation Xrotation Yrotation
                JOINT lPinky2
                {
                  OFFSET 1.82734 -0.647385 -0.700984
                  CHANNELS 3 Zrotation Xrotation Yrotation
                  End Site
                  {
                    OFFSET 1.69225 -0.51767 -0.607171
                  }
                }
              }
            }
          }
        }
      }
    }
  }
  JOINT rButtock
  {
    OFFSET -8.77824 4.35084 1.2192
    CHANNELS 3 Zrotation Xrotation Yrotation
    JOINT rThigh
    {
      OFFSET 0 -1.70687 -2.19456
      CHANNELS 3 Zrotation Xrotation Yrotation
      JOINT rShin
      {
        OFFSET 0 -36.8199 0.73152
        CHANNELS 3 Zrotation Xrotation Yrotation
        JOINT rFoot
        {
          OFFSET 0.73152 -45.1104 -5.12064
          CHANNELS 3 Zrotation Xrotation Yrotation
          End Site
          {
            OFFSET -1.1221 -3.69964 12.103
          }
        }
      }
    }
  }
  JOINT lButtock
  {
    OFFSET 8.77824 4.35084 1.2192
    CHANNELS 3 Zrotation Xrotation Yrotation
    JOINT lThigh
    {
      OFFSET 0 -1.70687 -2.19456
      CHANNELS 3 Zrotation Xrotation Yrotation
      JOINT lShin
      {
        OFFSET 0 -36.8199 0.73152
        CHANNELS 3 Zrotation Xrotation Yrotation
        JOINT lFoot
        {
          OFFSET -0.73152 -45.1104 -5.12064
          CHANNELS 3 Zrotation Xrotation Yrotation
          End Site
          {
            OFFSET 1.1221 -3.69964 12.103
          }
        }
      }
    }
  }
}
MOTION
Frames:	5
Frame Time:	0.00833333
-22.2701 81.3272 -36.3872 -0.0 -0.0 -0.0 -0.0 0.0 -0.0 0.0 -0.0 -0.0 0.245875 19.608241 -158.802917 7.579128 18.139248 157.548848 -0.0 -0.0 0.0 -0.0 -0.0 0.0 -33.837732 -85.66573 -55.255002 91.168233 -75.418698 86.500527 5.013635 -23.68139 -33.077563 169.930934 -18.545568 143.585442 -2.608268 2.55464 0.457401 -25.185923 20.791906 23.508233 -124.521489 22.157462 104.962864 -171.524272 -48.213741 122.065927 -160.673322 -6.667841 143.245105 -141.384369 36.644947 131.56901 -0.014868 -1.323148 -0.415899 -165.666189 -1.518808 171.716762 -148.242325 22.397232 -144.472132 -144.33664 8.923225 -140.620919 142.973735 39.431617 -147.390037 -18.812347 16.03942 -8.544772 -6.932392 19.524083 34.773869 -172.78557 -10.289333 -144.583142 -178.619005 -18.760041 -89.038626 -139.715968 -57.060202 -101.747654 18.649417 23.634902 -12.969565 177.508738 -21.241699 -114.920154 89.835461 60.702148 -81.262754 160.942457 2.193557 -145.383386 145.119466 0.267753 179.212454 -21.064381 6.459741 8.26834 156.381711 53.734251 150.117957 126.665338 -26.763429 124.423419 -0.0 0.0 -0.0 -0.0 -0.0 -0.0 7.397073 5.294191 87.407088 -5.764178 27.058788 -81.231577 -0.0 0.0 -0.0 -0.0 -0.0 -0.0 -7.507689 6.266531 -95.937971 63.789946 85.973743 11.073513
-22.7746 81.2908 -36.6506 -0.0 -0.0 -0.0 -0.0 0.0 -0.0 0.0 -0.0 -0.0 0.245875 19.608241 -158.802917 7.579128 18.139248 157.548848 -0.0 0.0 -0.0 -0.0 0.0 -0.0 -80.1661 68.371792 83.260848 -156.024567 0.011089 179.053864 -75.599293 86.443412 78.358005 -1.019663 3.264555 -0.082697 -93.743665 37.963835 53.548561 -103.794143 -8.64314 68.610684 -14.228542 19.203392 9.559881 75.842731 -64.281979 36.250684 173.123457 -66.297779 137.614274 -1.58609 14.124857 5.673768 -145.122708 1.121372 -179.480596 20.423751 -0.602855 -9.289609 -126.797849 -26.619602 -124.512652 25.15429 67.047042 9.277594 142.973735 39.431617 -147.390037 -18.812347 16.03942 -8.544772 -6.932392 19.524083 34.773869 -172.78557 -10.289333 -144.583142 -175.880133 -21.257501 -88.493291 4.228867 -58.299081 1.054338 1.39698 2.231723 -0.807408 169.717203 -8.421568 -109.966539 151.476684 17.84174 -137.538824 14.386314 43.077545 -13.334249 0.021291 -1.725169 0.542387 166.907591 -27.371663 -174.618639 26.564207 -38.860901 25.60587 153.8052 35.291033 149.923829 -0.0 0.0 -0.0 -0.0 -0.0 -0.0 7.397073 5.294191 87.407088 -5.774708 27.212116 -81.180018 -0.0 0.0 -0.0 -0.0 -0.0 -0.0 -7.507689 6.266531 -95.937971 63.789946 85.973743 11.073513
-23.2629 81.2146 -36.9267 -0.0 -0.0 -0.0 -0.0 0.0 -0.0 0.0 -0.0 -0.0 0.245875 19.608241 -158.802917 7.579128 18.139248 157.548848 -0.0 0.0 -0.0 -0.0 0.0 -0.0 -142.973735 39.431617 147.390037 -151.980852 -2.335175 170.955575 9.507229 15.727297 -1.307255 -10.508484 31.078892 1.833601 -78.030619 38.689342 42.41267 5.647223 -16.605743 23.321345 -124.521489 22.157462 104.962864 -56.838035 62.984844 42.802392 -161.518715 -9.304265 143.625478 5.863106 1.672082 0.669053 -145.119466 0.267753 -179.212454 21.521137 13.302415 -7.485735 -41.391945 -46.839676 -40.214593 1.534792 -2.524495 0.868773 142.973735 39.431617 -147.390037 -18.812347 16.03942 -8.544772 -3.844948 9.632042 33.655235 -169.365616 -20.081836 -143.345321 -1.842452 -1.827119 0.254339 125.825109 -18.067449 -112.800571 77.667448 43.02965 -64.538509 47.88148 57.972084 -26.714365 125.644075 49.839986 -115.274123 37.847249 60.52326 -32.927337 -0.004873 1.771387 -0.556475 164.312607 -64.076147 177.948428 148.967148 25.012605 145.073339 144.630964 9.513354 140.657109 -0.0 0.0 -0.0 -0.0 -0.0 -0.0 7.397073 5.294191 87.407088 -5.774708 27.212116 -81.180018 -0.0 0.0 -0.0 -0.0 -0.0 -0.0 -7.507689 6.266531 -95.937971 63.789946 85.973743 11.073513
-23.6589 81.1043 -37.1097 -0.0 -0.0 -0.0 -0.0 0.0 -0.0 0.0 -0.0 -0.0 0.245875 19.608241 -158.802917 7.579128 18.139248 157.548848 -0.0 -0.0 0.0 -0.0 -0.0 0.0 -142.973735 39.431617 147.390037 -151.980852 -2.335175 170.955575 11.412418 9.227559 -1.498477 -13.289973 37.43742 3.180886 2.012629 -1.996597 -0.274913 36.855021 -63.419166 -19.198071 19.56865 -35.040283 -5.986264 -178.69295 -25.888723 102.587603 6.533059 -20.414937 -2.717988 -10.723787 25.450962 7.129045 -145.099706 -1.521107 -178.650165 22.127082 25.985239 -5.722694 -146.206697 15.40572 -142.730862 19.314309 43.347573 5.89328 142.973735 39.431617 -147.390037 -18.812347 16.03942 -8.544772 -3.844948 9.632042 33.655235 -169.365616 -20.081836 -143.345321 -1.842452 -1.827119 0.254339 125.825109 -18.067449 -112.800571 77.667448 43.02965 -64.538509 47.88148 57.972084 -26.714365 125.644075 49.839986 -115.274123 37.847249 60.52326 -32.927337 -0.004873 1.771387 -0.556475 164.312607 -64.076147 177.948428 148.967148 25.012605 145.073339 144.630964 9.513354 140.657109 -0.0 0.0 -0.0 -0.0 -0.0 -0.0 7.397073 5.294191 87.407088 -5.764178 27.058788 -81.231577 -0.0 0.0 -0.0 -0.0 -0.0 -0.0 -7.507689 6.266531 -95.937971 63.789946 85.973743 11.073513
-23.9911 80.9684 -37.2624 -0.0 -0.0 -0.0 -0.0 0.0 -0.0 0.0 -0.0 -0.0 0.245875 19.608241 -158.802917 7.579128 18.139248 157.548848 -0.0 -0.0 0.0 -0.0 -0.0 0.0 -142.973735 39.431617 147.390037 -151.980852 -2.335175 170.955575 11.412418 9.227559 -1.498477 -13.289973 37.43742 3.180886 2.012629 -1.996597 -0.274913 36.855021 -63.419166 -19.198071 19.56865 -35.040283 -5.986264 -178.69295 -25.888723 102.587603 6.533059 -20.414937 -2.717988 -10.723787 25.450962 7.129045 -145.099706 -1.521107 -178.650165 22.127082 25.985239 -5.722694 -146.206697 15.40572 -142.730862 19.314309 43.347573 5.89328 142.973735 39.431617 -147.390037 -18.812347 16.03942 -8.544772 -3.844948 9.632042 33.655235 -169.365616 -20.081836 -143.345321 -1.842452 -1.827119 0.254339 125.825109 -18.067449 -112.800571 77.667448 43.02965 -64.538509 47.88148 57.972084 -26.714365 125.644075 49.839986 -115.274123 37.847249 60.52326 -32.927337 -0.004873 1.771387 -0.556475 164.312607 -64.076147 177.948428 148.967148 25.012605 145.073339 144.630964 9.513354 140.657109 -0.0 0.0 -0.0 -0.0 -0.0 -0.0 7.397073 5.294191 87.407088 -7.625303 -12.629408 -93.610193 -0.0 0.0 -0.0 -0.0 -0.0 -0.0 -7.507689 6.266531 -95.937971 63.789946 85.973743 11.073513
